<?xml version="1.0" encoding="UTF-8" standalone="no"?>
<!DOCTYPE svg PUBLIC "-//W3C//DTD SVG 1.1//EN" "http://www.w3.org/Graphics/SVG/1.1/DTD/svg11.dtd">
<svg width="100%" height="100%" viewBox="0 0 1024 1024" version="1.1" xmlns="http://www.w3.org/2000/svg" xmlns:xlink="http://www.w3.org/1999/xlink" xml:space="preserve" xmlns:serif="http://www.serif.com/" style="fill-rule:evenodd;clip-rule:evenodd;stroke-linejoin:round;stroke-miterlimit:2;">
    <g transform="matrix(0.1,0,0,-0.1,0,1024)">
        <g transform="matrix(0.877915,0.91559,-0.91559,0.877915,5413.53,-3903.16)">
            <path d="M1887,7012C1820,6983 1716,6828 1645,6654C1382,6002 1323,4909 1506,4053C1580,3705 1695,3421 1814,3292C1875,3226 1900,3216 1994,3224C2464,3262 3095,3520 3787,3956C3925,4043 4211,4239 4262,4282L4289,4305L4251,4366C4231,4400 4203,4459 4189,4496C4165,4565 4165,4568 4162,5016C4159,5520 4161,5543 4225,5675C4243,5713 4284,5775 4314,5812L4369,5879L4242,5973C3984,6163 3750,6315 3455,6482C2901,6797 2364,6992 1990,7015C1943,7018 1897,7016 1887,7012Z" style="fill:rgb(119,119,119);fill-rule:nonzero;"/>
        </g>
        <g transform="matrix(0.877915,0.91559,-0.91559,0.877915,5413.53,-3903.16)">
            <path d="M8200,7013C8082,7000 7864,6950 7700,6898C7213,6743 6517,6363 5978,5957L5871,5877L5913,5829C6009,5719 6064,5591 6082,5437C6088,5382 6090,5197 6087,4975C6084,4670 6080,4595 6066,4545C6047,4477 6000,4373 5970,4330L5950,4302L6068,4218C6529,3885 7037,3598 7459,3430C7774,3305 8075,3229 8265,3226C8347,3225 8358,3227 8387,3250C8539,3369 8694,3775 8775,4268C8851,4731 8860,5311 8799,5805C8734,6330 8582,6789 8417,6961C8361,7019 8329,7027 8200,7013Z" style="fill:rgb(119,119,119);fill-rule:nonzero;"/>
        </g>
        <g transform="matrix(0.877915,0.91559,-0.91559,0.877915,5413.53,-3903.16)">
            <path d="M4648,5824C4524,5786 4411,5666 4370,5531C4350,5466 4349,5444 4352,5019L4355,4575L4392,4497C4437,4402 4511,4326 4595,4284L4655,4255L5585,4255L5643,4283C5753,4338 5842,4449 5875,4575C5897,4662 5897,5428 5875,5515C5841,5643 5755,5750 5641,5804L5575,5835L5135,5837C4772,5839 4687,5836 4648,5824Z" style="fill:rgb(119,119,119);fill-rule:nonzero;"/>
        </g>
    </g>
</svg>
